# xmcd
#
# Track frame offsets:
#	204
#	12467
#	18749
#	35081
#	48053
#	59207
#	72833
#	87871
#	102388
#	113194
#	124384
#	130263
#	142387
#	155475
#	167927
#	182323
#	186423
#	199518
#	211306
#	223477
#
# Disc length: 3135 seconds
#
# Revision: 1
# Processed by: cddbd v1.5.2PL0 Copyright (c) Steve Scherf et al.
# Submitted via: audiograbber 1.83.01
#
DISCID=3d0c3d14
DTITLE=Rees Gwerder - Gold CD 1
DYEAR=1900
DGENRE=Volksmusik
TTITLE0=Us dr Schwäizi - Schottisch
TTITLE1=De Beerivogel - Walzer
TTITLE2=De Schopfmuser - Schottisch
TTITLE3=Dr alt Gersauer - Ländlerwalzer
TTITLE4=De Hürithaler - Schottisch
TTITLE5=Eine für's Fälchlis - Polka
TTITLE6=Dr Rees im Schuss - Schottisch
TTITLE7=Arther Senne-Chilbi - Ländler
TTITLE8=Echo vom Geiss-Himmel - Schottisch
TTITLE9=Morgeluft - Schottisch
TTITLE10=Brautschau - Ländler
TTITLE11=Mir zwei ufem Bänkli - Schottisch
TTITLE12=Dr Zeneli - Schottisch
TTITLE13=S' butzt unghür - Polka
TTITLE14=Dr Rigitüüfel - SChottisch
TTITLE15=Dr Saagefieler - Stümpeli-Ländler
TTITLE16=Urnerbodä-Ski-Chilbi - Schottisch
TTITLE17=Bim Alex im Landhuus - Walzer
TTITLE18=Echo vom Höll-Loch - Schottisch
TTITLE19=Bim Z'Häre fahre - Ländler
EXTD=
EXTT0=
EXTT1=
EXTT2=
EXTT3=
EXTT4=
EXTT5=
EXTT6=
EXTT7=
EXTT8=
EXTT9=
EXTT10=
EXTT11=
EXTT12=
EXTT13=
EXTT14=
EXTT15=
EXTT16=
EXTT17=
EXTT18=
EXTT19=
PLAYORDER=
